<svg width="132" height="26" viewBox="0 0 132 26" fill="none" xmlns="http://www.w3.org/2000/svg">
<g id="Group 59">
<g id="Group">
<path id="Vector" d="M90.0577 25.8595H77.4257C73.8774 25.8595 70.9678 22.9499 70.9678 19.4016V6.69864C70.9678 3.15033 73.8774 0.240723 77.4257 0.240723H90.0577C93.606 0.240723 96.5156 3.15033 96.5156 6.69864V19.3306C96.5865 22.9499 93.6769 25.8595 90.0577 25.8595Z" fill="#FF0000"/>
<g id="Group_2">
<path id="Vector_2" d="M90.7674 8.82736C90.3416 9.04026 89.8449 9.11122 89.3481 9.25316C89.561 9.18219 89.9158 8.82736 90.0578 8.61446C90.2706 8.3306 90.4126 8.04673 90.5545 7.76287V7.6919H90.4835C89.9868 7.97577 89.4191 8.18866 88.8513 8.3306C88.7804 8.3306 88.7804 8.3306 88.7094 8.3306C88.6384 8.25963 88.6384 8.25963 88.5675 8.18866C88.3546 7.97577 88.0707 7.83383 87.7868 7.6919C87.432 7.54997 87.0062 7.479 86.5804 7.479C86.1546 7.479 85.7998 7.62094 85.445 7.83383C85.0901 8.04673 84.7353 8.25963 84.5224 8.61446C84.2385 8.96929 84.0966 9.32412 83.9547 9.74992C83.8837 10.1757 83.8837 10.5305 83.9547 10.9563C83.9547 11.0273 83.9547 11.0273 83.8837 11.0273C81.6128 10.6725 79.6967 9.89185 78.2064 8.1177C78.1354 8.04673 78.1354 8.04673 78.0645 8.1177C77.4258 9.11122 77.7096 10.7434 78.5612 11.5241C78.7032 11.595 78.7741 11.737 78.9161 11.8079C78.8451 11.8079 78.3483 11.737 77.8516 11.5241C77.7806 11.4531 77.7806 11.5241 77.7806 11.595C77.7806 11.737 77.7806 11.8079 77.7806 11.9499C77.9225 12.9434 78.6322 13.9369 79.5548 14.2917C79.6967 14.3627 79.7677 14.3627 79.9096 14.4337C79.6967 14.5046 79.4838 14.5046 78.8451 14.4337C78.7741 14.4337 78.7032 14.4337 78.7741 14.5046C79.2709 15.782 80.2644 16.2078 81.0451 16.4207C81.116 16.4207 81.258 16.4207 81.3289 16.4917C81.0451 16.8465 80.1935 17.2014 79.7677 17.3433C79.058 17.6272 78.2064 17.6981 77.4258 17.6272C77.2839 17.6272 77.2839 17.6272 77.2129 17.6272C77.2129 17.6272 77.2129 17.6981 77.2839 17.6981C77.4258 17.7691 77.6387 17.911 77.7806 17.982C78.2774 18.2658 78.7741 18.4787 79.3419 18.6207C82.1805 19.4013 85.303 18.8336 87.432 16.7046C89.0642 15.0724 89.7029 12.8015 89.7029 10.5305C89.7029 10.4596 89.7739 10.3886 89.8449 10.3176C90.2706 9.96282 90.6255 9.60799 90.9803 9.18219C90.8384 8.89833 90.8384 8.82736 90.7674 8.82736C90.8384 8.82736 90.8384 8.82736 90.7674 8.82736C90.8384 8.75639 90.8384 8.75639 90.7674 8.82736Z" fill="white"/>
</g>
</g>
<g id="Group_3">
<path id="Vector_3" d="M54.5747 25.8595H41.9428C38.3945 25.8595 35.4849 22.9499 35.4849 19.4016V6.69864C35.4849 3.15033 38.3945 0.240723 41.9428 0.240723H54.5747C58.123 0.240723 61.0327 3.15033 61.0327 6.69864V19.3306C61.1036 22.9499 58.194 25.8595 54.5747 25.8595Z" fill="#FF0000"/>
<g id="Group_4">
<g id="Group_5">
<g id="Group_6">
<path id="Vector_4" d="M52.2329 8.33057C51.7362 8.33057 51.3813 8.6854 51.3813 9.18216C51.3813 9.67892 51.7362 10.0338 52.2329 10.0338C52.7297 10.0338 53.0845 9.67892 53.0845 9.18216C53.0845 8.6854 52.6587 8.33057 52.2329 8.33057Z" fill="white"/>
<path id="Vector_5" d="M48.3297 9.39502C46.3427 9.39502 44.7104 11.0272 44.7104 13.0143C44.7104 15.0013 46.3427 16.6336 48.3297 16.6336C50.3168 16.6336 51.949 15.0013 51.949 13.0143C52.02 11.0272 50.3877 9.39502 48.3297 9.39502ZM48.3297 15.4271C47.0523 15.4271 45.9878 14.3626 45.9878 13.0853C45.9878 11.8079 47.0523 10.7434 48.3297 10.7434C49.6071 10.7434 50.6716 11.8079 50.6716 13.0853C50.6716 14.3626 49.6071 15.4271 48.3297 15.4271Z" fill="white"/>
<path id="Vector_6" d="M51.2395 20.4657H45.3493C42.8655 20.4657 40.8784 18.4787 40.8784 15.9948V10.1047C40.8784 7.62084 42.8655 5.63379 45.3493 5.63379H51.2395C53.7233 5.63379 55.7103 7.62084 55.7103 10.1047V15.9948C55.7103 18.4787 53.7233 20.4657 51.2395 20.4657ZM45.3493 7.05311C43.6461 7.05311 42.2977 8.40147 42.2977 10.1047V15.9948C42.2977 17.698 43.6461 19.0464 45.3493 19.0464H51.2395C52.9427 19.0464 54.291 17.698 54.291 15.9948V10.1047C54.291 8.40147 52.9427 7.05311 51.2395 7.05311H45.3493Z" fill="white"/>
</g>
</g>
</g>
</g>
<g id="Group_7">
<path id="Vector_7" d="M19.0918 25.8595H14.7629L12.7758 25.1498L10.7888 25.7885H6.45987C2.91156 25.7885 0.00195312 22.8789 0.00195312 19.3306V6.69864C0.00195312 3.15033 2.91156 0.240723 6.45987 0.240723H19.0918C22.6401 0.240723 25.5497 3.15033 25.5497 6.69864V19.3306C25.6207 22.9499 22.7111 25.8595 19.0918 25.8595Z" fill="#FF0000"/>
<path id="Vector_8" d="M10.7887 10.2472V13.0149H7.59521V16.6342H10.7887V25.7888H14.7628V16.7052H17.7434L18.3111 13.0859H14.8338V10.744C14.8338 9.75048 15.3305 8.75696 16.8918 8.75696H18.453V5.56348C18.453 5.56348 17.0337 5.35059 15.6144 5.35059C12.7048 5.35059 10.7887 7.05377 10.7887 10.2472Z" fill="white"/>
</g>
<g id="Group_8">
<path id="Vector_9" d="M125.541 25.8595H112.909C109.361 25.8595 106.451 22.9499 106.451 19.4016V6.69864C106.451 3.15033 109.361 0.240723 112.909 0.240723H125.541C129.089 0.240723 131.999 3.15033 131.999 6.69864V19.3306C132.07 22.9499 129.16 25.8595 125.541 25.8595Z" fill="#FF0000"/>
<g id="Group_9">
<path id="Vector_10" d="M119.864 11.8791C120.218 11.4533 120.715 11.1695 121.212 11.0985C122.205 10.9566 123.199 10.9566 123.909 11.8791C124.334 12.3759 124.547 13.0146 124.547 13.7242C124.618 15.1436 124.618 16.5629 124.618 17.9822C124.618 18.337 124.476 18.5499 124.051 18.5499C123.625 18.5499 123.128 18.5499 122.702 18.5499C122.276 18.5499 122.134 18.408 122.134 17.9822C122.134 16.8467 122.134 15.7113 122.134 14.5758C122.134 14.292 122.063 14.0791 121.993 13.7952C121.851 13.3694 121.567 13.1565 121.141 13.1565C120.715 13.1565 120.289 13.2275 120.147 13.6533C120.005 13.9371 119.864 14.292 119.864 14.6468C119.793 15.7113 119.864 16.8467 119.864 17.9112C119.864 18.408 119.722 18.5499 119.225 18.5499C118.799 18.5499 118.373 18.5499 118.018 18.5499C117.593 18.5499 117.451 18.408 117.451 17.9822C117.451 15.9242 117.451 13.7952 117.451 11.7372C117.451 11.3114 117.593 11.1695 118.018 11.1695C118.444 11.1695 118.799 11.1695 119.225 11.1695C119.651 11.1695 119.793 11.3114 119.864 11.8082C119.864 11.7372 119.864 11.8082 119.864 11.8791Z" fill="white"/>
<path id="Vector_11" d="M116.528 14.7887C116.528 15.8532 116.528 16.8467 116.528 17.9112C116.528 18.337 116.386 18.4789 115.961 18.4789C115.535 18.4789 115.109 18.4789 114.754 18.4789C114.328 18.4789 114.187 18.337 114.187 17.9112C114.187 15.8532 114.187 13.7952 114.187 11.7372C114.187 11.3114 114.328 11.1694 114.754 11.1694C115.18 11.1694 115.535 11.1694 115.961 11.1694C116.386 11.1694 116.599 11.3114 116.599 11.8081C116.528 12.7307 116.528 13.7952 116.528 14.7887Z" fill="white"/>
<path id="Vector_12" d="M113.832 9.11155C113.832 8.25995 114.541 7.55029 115.322 7.55029C116.173 7.55029 116.812 8.25995 116.812 9.04058C116.812 9.89217 116.102 10.6018 115.251 10.6018C114.47 10.6018 113.832 9.96314 113.832 9.11155Z" fill="white"/>
</g>
</g>
</g>
</svg>
